:SAMPLES-PER-SECOND 30
:FULLY-SPECIFIED
:DEGREES
141
root  2.971622137 33.32644485 1.781657737 166.6680298 -74.96730042 179.2730103
lowerback  9.87567997 5.798299789 -1.663190007
upperback  1.79282999 7.236800194 -3.501859903
thorax  -3.382210016 3.533849955 -3.610640049
lowerneck  -4.163300037 10.78569984 0.3698489964
upperneck  17.69300079 13.69470024 4.3894701
head  5.749450207 6.865059853 2.112010002
lclavicle  0 -9.442270133e-015 7.951389973e-016
lhumerus  2.313299894 -15.0309 85.96579742
lradius  2.144964765e-031 -2.80499023e-031 127.4049988
lwrist  -1.412450015e-030 1.765562519e-031 11.04059982
lhand  -1.496451383e-031 -27.76390076 20.11240005
lfingers  90 7.125020027 -90
lthumb  89.89689403 5.08795885 91.16245106
rclavicle  0 -9.442270133e-015 7.951389973e-016
rhumerus  12.35159969 24.88969994 -80.08209991
rradius  -2.186098146e-031 2.773052278e-031 128.25
rwrist  7.062250077e-031 -0 -6.087659836
rhand  -7.920061211e-032 -33.2840004 9.303460121
rfingers  -90 -7.125020027 -90
rthumb  -92.93752616 -24.25625642 -97.11982154
rfemur  2.658080101 4.104020119 6.965579987
rtibia  -0 0 73.37280273
rfoot  -0 -37.33060074 -21.21260071
rtoes  5.373923086 19.29304026 -105.8922705
lfemur  -28.55719948 -3.047960043 6.273419857
ltibia  -0 0 74.87349701
lfoot  -0 -8.040909767 -23.85230064
ltoes  -4.250644065 -19.5611806 -102.515957
142
root  3.182066519 33.35288941 1.869924425 167.4790039 -75.23269653 179.4860229
lowerback  10.69470024 5.688210011 -1.634600043
upperback  2.367110014 7.064050198 -3.306119919
thorax  -3.262330055 3.440840006 -3.453380108
lowerneck  -3.758990049 10.81949997 0.1456959993
upperneck  16.15069962 13.90219975 3.735300064
head  5.22784996 6.932350159 1.871230006
lclavicle  0 -9.442270133e-015 7.951389973e-016
lhumerus  1.916239977 -14.79300022 86.41369629
lradius  2.135651169e-031 -2.812087858e-031 127.2149963
lwrist  -7.062250077e-031 -1.765562519e-031 10.98750019
lhand  -1.496451383e-031 -27.76390076 20.11240005
lfingers  90 7.125020027 -90
lthumb  89.89689403 5.08795885 91.16245106
rclavicle  0 -9.442270133e-015 7.951389973e-016
rhumerus  12.12730026 25.17779922 -80.2798996
rradius  -2.162107974e-031 2.791797476e-031 127.7559967
rwrist  7.062250077e-031 -1.765562519e-031 -5.97028017
rhand  -7.920061211e-032 -33.2840004 9.303460121
rfingers  -90 -7.125020027 -90
rthumb  -92.93752616 -24.25625642 -97.11982154
rfemur  1.107529998 4.053510189 7.001220226
rtibia  -0 0 73.83119965
rfoot  -0 -37.66279984 -20.84869957
rtoes  5.373923086 19.29304026 -105.8922705
lfemur  -29.76230049 -2.161200047 5.74819994
ltibia  -0 0 74.87110138
lfoot  -0 -10.71440029 -21.34329987
ltoes  -4.250644065 -19.5611806 -102.515957
143
root  3.401377821 33.38911102 1.948442234 168.5620117 -75.57649994 179.4609985
lowerback  11.39920044 5.502140045 -1.588680029
upperback  2.996109962 6.788040161 -3.189169884
thorax  -3.011679888 3.294490099 -3.354140043
lowerneck  -3.341510057 10.88339996 -0.0464839004
upperneck  14.44620037 14.13759995 3.027129889
head  4.666590214 7.020899773 1.607220054
lclavicle  0 -9.442270133e-015 7.951389973e-016
lhumerus  1.624559999 -14.48209953 86.62249756
lradius  2.125674738e-031 -2.819636669e-031 127.012001
lwrist  -1.412450015e-030 -1.765562519e-031 11.01819992
lhand  -1.496451383e-031 -27.76390076 20.11240005
lfingers  90 7.125020027 -90
lthumb  89.89689403 5.08795885 91.16245106
rclavicle  0 -9.442270133e-015 7.951389973e-016
rhumerus  11.94880009 25.51339912 -80.59780121
rradius  -2.136387643e-031 2.811528388e-031 127.2300034
rwrist  1.412450015e-030 -1.765562519e-031 -5.707220078
rhand  -7.920061211e-032 -33.2840004 9.303460121
rfingers  -90 -7.125020027 -90
rthumb  -92.93752616 -24.25625642 -97.11982154
rfemur  -0.5389530063 3.863300085 6.899310112
rtibia  -0 0 74.35150146
rfoot  -0 -37.51010132 -20.68840027
rtoes  5.373923086 19.29304026 -105.8922705
lfemur  -30.98769951 -1.448429942 5.087629795
ltibia  -0 0 74.63990021
lfoot  -0 -12.89869976 -18.35160065
ltoes  -4.250644065 -19.5611806 -102.515957
144
root  3.62251124 33.44977672 2.018168968 171.2449951 -76.04049683 177.8579712
lowerback  12.17029953 5.548220158 -2.346050024
upperback  3.532999992 6.713630199 -2.983180046
thorax  -2.98506999 3.242569923 -2.763149977
lowerneck  -3.066430092 10.76939964 0.1764400005
upperneck  12.66289997 14.12510014 1.95709002
head  4.605629921 6.982850075 1.30230999
lclavicle  0 -9.442270133e-015 7.951389973e-016
lhumerus  1.200929999 -14.48869991 87.15270233
lradius  2.112116946e-031 -2.829806715e-031 126.7369995
lwrist  -1.412450015e-030 -1.765562519e-031 11.12849998
lhand  -1.496451383e-031 -27.76390076 20.11240005
lfingers  90 7.125020027 -90
lthumb  89.89689403 5.08795885 91.16245106
rclavicle  0 -9.442270133e-015 7.951389973e-016
rhumerus  11.45119953 25.49449921 -80.59760284
rradius  -2.112462843e-031 2.829548511e-031 126.7440033
rwrist  1.412450015e-030 -1.765562519e-031 -5.689620018
rhand  -7.920061211e-032 -33.2840004 9.303460121
rfingers  -90 -7.125020027 -90
rthumb  -92.93752616 -24.25625642 -97.11982154
rfemur  -2.418790102 3.3150599 6.308499813
rtibia  -0 0 75.04160309
rfoot  -0 -36.26039886 -21.86079979
rtoes  5.373923086 19.29304026 -105.8922705
lfemur  -32.19229889 -0.9622139931 3.915699959
ltibia  -0 0 74.15920258
lfoot  -0 -14.76099968 -15.23630047
ltoes  -4.250644065 -19.5611806 -102.515957
145
root  3.841955455 33.54288837 2.078702131 174.901001 -76.542099 175.4210205
lowerback  12.71549988 5.572659969 -3.317899942
upperback  4.071420193 6.58453989 -2.791270018
thorax  -2.851289988 3.158869982 -2.037120104
lowerneck  -2.91121006 10.67539978 0.450334996
upperneck  11.31120014 14.11170006 0.8829069734
head  4.196060181 6.962779999 0.8463820219
lclavicle  0 -9.442270133e-015 7.951389973e-016
lhumerus  0.6736890078 -14.33419991 87.68170166
lradius  2.104552845e-031 -2.835436714e-031 126.5839996
lwrist  0 -3.531125038e-031 11.11789989
lhand  -1.496451383e-031 -27.76390076 20.11240005
lfingers  90 7.125020027 -90
lthumb  89.89689403 5.08795885 91.16245106
rclavicle  0 -9.442270133e-015 7.951389973e-016
rhumerus  11.05920029 25.49080086 -80.59279633
rradius  -2.082318342e-031 2.851805456e-031 126.1360016
rwrist  7.062250077e-031 1.765562519e-031 -5.718850136
rhand  -7.920061211e-032 -33.2840004 9.303460121
rfingers  -90 -7.125020027 -90
rthumb  -92.93752616 -24.25625642 -97.11982154
rfemur  -4.48514986 3.299740076 5.466070175
rtibia  -0 0 75.78279877
rfoot  -0 -36.60100174 -19.6154995
rtoes  5.373923086 19.29304026 -105.8922705
lfemur  -33.44979858 -0.6402570009 2.518620014
ltibia  -0 0 73.4489975
lfoot  -0 -16.33799934 -12.26550007
ltoes  -4.250644065 -19.5611806 -102.515957
146
root  4.050711009 33.65400119 2.137024384 178.8859863 -76.99549866 172.5880127
lowerback  13.30010033 5.570000172 -4.18888998
upperback  4.576869965 6.41906023 -2.627820015
thorax  -2.749799967 3.05208993 -1.394189954
lowerneck  -2.51515007 10.55609989 0.5801519752
upperneck  9.711480141 14.04829979 -0.1611980051
head  3.648030043 6.922739983 0.4040479958
lclavicle  0 -9.442270133e-015 7.951389973e-016
lhumerus  0.001960489899 -14.07839966 88.18730164
lradius  2.106334141e-031 -2.83411371e-031 126.6200027
lwrist  -1.412450015e-030 -0 11.17090034
lhand  -1.496451383e-031 -27.76390076 20.11240005
lfingers  90 7.125020027 -90
lthumb  89.89689403 5.08795885 91.16245106
rclavicle  0 -9.442270133e-015 7.951389973e-016
rhumerus  10.65250015 25.51860046 -80.61039734
rradius  -2.050635038e-031 2.874672151e-031 125.5019989
rwrist  7.062250077e-031 -0 -5.853909969
rhand  -7.920061211e-032 -33.2840004 9.303460121
rfingers  -90 -7.125020027 -90
rthumb  -92.93752616 -24.25625642 -97.11982154
rfemur  -6.569540024 2.789900064 4.529650211
rtibia  -0 0 76.59880066
rfoot  -0 -35.86429977 -18.74029922
rtoes  5.373923086 19.29304026 -105.8922705
lfemur  -34.54510117 -0.5915110111 1.040480018
ltibia  -0 0 72.57910156
lfoot  -0 -17.58569908 -9.051609993
ltoes  -4.250644065 -19.5611806 -102.515957
147
root  4.249422194 33.78466809 2.191437699 -178.0390015 -77.52950287 170.7119751
lowerback  13.97480011 5.491529942 -4.551949978
upperback  4.923349857 6.207630157 -2.521409988
thorax  -2.794630051 2.92866993 -1.094439983
lowerneck  -1.909060001 10.39710045 0.6686069965
upperneck  8.087920189 13.88360023 -0.9038969874
head  3.03828001 6.848889828 0.05500249937
lclavicle  0 -9.442270133e-015 7.951389973e-016
lhumerus  -0.6441090107 -14.0557003 88.39489746
lradius  2.102275851e-031 -2.837125356e-031 126.538002
lwrist  -7.062250077e-031 -0 11.4975996
lhand  -1.496451383e-031 -27.76390076 20.11240005
lfingers  90 7.125020027 -90
lthumb  89.89689403 5.08795885 91.16245106
rclavicle  0 -9.442270133e-015 7.951389973e-016
rhumerus  10.07740021 25.32850075 -80.96690369
rradius  -2.01718347e-031 2.898243414e-031 124.8379974
rwrist  7.062250077e-031 -0 -6.066269875
rhand  -7.920061211e-032 -33.2840004 9.303460121
rfingers  -90 -7.125020027 -90
rthumb  -92.93752616 -24.25625642 -97.11982154
rfemur  -8.658880234 1.955809951 3.985140085
rtibia  -0 0 77.39040375
rfoot  -0 -34.44749832 -19.02510071
rtoes  5.373923086 19.29304026 -105.8922705
lfemur  -35.68030167 -0.8531339765 -0.06055489928
ltibia  -0 0 71.58860016
lfoot  4.648556683e-032 -18.28240013 -6.108419895
ltoes  -4.250644065 -19.5611806 -102.515957
